<svg width="330" height="330" viewBox="0 0 330 330" fill="none" xmlns="http://www.w3.org/2000/svg">
<path d="M260.869 115.735H235.406L270.531 80.0918H293.773L260.869 115.735Z" fill="url(#paint0_linear)"/>
<path d="M258.914 215.352H233.452C216.087 236.635 195.979 252.694 151.977 259.613C204.988 274.499 248.861 227.626 258.914 215.352Z" fill="url(#paint1_linear)"/>
<path d="M293.774 80.0891H270.532C245.712 38.4734 191.274 13.6322 155.758 14.0237C233.19 11.543 275.756 54.1069 293.774 80.0891Z" fill="url(#paint2_linear)"/>
<path d="M101.533 222.753C58.3195 166.962 96.7006 96.6239 137.97 79.7978C137.97 79.7978 145.023 76.0152 153.119 73.7979C161.217 71.5805 171.143 70.6673 171.143 70.6673C130.918 63.7542 100.443 84.7103 84.8602 98.3693C71.0167 109.847 52.5063 134.714 47.9867 163.015C41.3795 204.388 56.2761 230.631 63.267 244.668C75.3285 268.885 111.618 318.754 169.837 318.754C225.617 318.754 272.624 285.336 294.821 251.188L258.905 215.319C217.246 262.929 151.944 287.841 101.533 222.753Z" fill="url(#paint3_linear)"/>
<path d="M270.529 80.0901L235.404 115.734C214.774 82.832 173.054 58.2891 126.293 74.3856C67.6187 94.5826 26.02 159.672 56.7813 231.023C82.1123 289.776 130.163 320.327 174.82 318.759C76.8895 323.983 2.59349 246.559 8.90764 154.03C12.4248 102.491 50.5136 28.6842 146.354 14.8081C192.185 8.17269 251.988 45.3604 270.529 80.0901Z" fill="url(#paint4_linear)"/>
<defs>
<linearGradient id="paint0_linear" x1="270.269" y1="77.7417" x2="262.305" y2="121.481" gradientUnits="userSpaceOnUse">
<stop stop-color="#7E111C"/>
<stop offset="1" stop-color="#963105"/>
</linearGradient>
<linearGradient id="paint1_linear" x1="243.331" y1="230.457" x2="154.933" y2="254.355" gradientUnits="userSpaceOnUse">
<stop stop-color="#FFCC00"/>
<stop offset="1" stop-color="#C44208"/>
</linearGradient>
<linearGradient id="paint2_linear" x1="227.313" y1="19.2463" x2="285.021" y2="82.3127" gradientUnits="userSpaceOnUse">
<stop stop-color="#FFA004"/>
<stop offset="1" stop-color="#A80C22"/>
</linearGradient>
<linearGradient id="paint3_linear" x1="165.03" y1="69.384" x2="165.03" y2="318.37" gradientUnits="userSpaceOnUse">
<stop stop-color="#922112"/>
<stop offset="1" stop-color="#FFB600"/>
</linearGradient>
<linearGradient id="paint4_linear" x1="139.473" y1="14.0334" x2="139.473" y2="318.446" gradientUnits="userSpaceOnUse">
<stop stop-color="#C92926"/>
<stop offset="1" stop-color="#FFD300"/>
</linearGradient>
</defs>
</svg>
